<svg version="1.1" viewBox="0.0 0.0 706.4120734908137 543.4776902887139" fill="none" stroke="none" stroke-linecap="square" stroke-miterlimit="10" xmlns:xlink="http://www.w3.org/1999/xlink" xmlns="http://www.w3.org/2000/svg"><clipPath id="p.0"><path d="m0 0l706.41205 0l0 543.47766l-706.41205 0l0 -543.47766z" clip-rule="nonzero"/></clipPath><g clip-path="url(#p.0)"><path fill="#000000" fill-opacity="0.0" d="m0 0l706.41205 0l0 543.47766l-706.41205 0z" fill-rule="evenodd"/><path fill="#000000" fill-opacity="0.0" d="m141.98454 66.18356l0.8818817 452.7244" fill-rule="evenodd"/><path stroke="#ffffff" stroke-width="3.0" stroke-linejoin="round" stroke-linecap="butt" d="m141.98454 66.18356l0.8818817 452.7244" fill-rule="evenodd"/><path fill="#000000" fill-opacity="0.0" d="m563.3916 67.267296l-1.1968384 452.25198" fill-rule="evenodd"/><path stroke="#ffffff" stroke-width="3.0" stroke-linejoin="round" stroke-linecap="butt" d="m563.3916 67.267296l-1.1968384 452.25198" fill-rule="evenodd"/><path fill="#000000" fill-opacity="0.0" d="m65.30446 23.958006l154.3937 0l0 42.23622l-154.3937 0z" fill-rule="evenodd"/><path stroke="#ffffff" stroke-width="3.0" stroke-linejoin="round" stroke-linecap="butt" d="m65.30446 23.958006l154.3937 0l0 42.23622l-154.3937 0z" fill-rule="evenodd"/><path fill="#ffffff" d="m128.351 51.216114l0 -12.40625l4.65625 0q1.421875 0 2.28125 0.375q0.859375 0.375 1.34375 1.171875q0.484375 0.78125 0.484375 1.625q0 0.796875 -0.4375 1.5q-0.421875 0.703125 -1.296875 1.140625q1.125 0.328125 1.734375 1.125q0.609375 0.796875 0.609375 1.875q0 0.875 -0.375 1.625q-0.359375 0.734375 -0.90625 1.140625q-0.546875 0.40625 -1.359375 0.625q-0.8125 0.203125 -2.0 0.203125l-4.734375 0zm1.640625 -7.1875l2.6875 0q1.09375 0 1.5625 -0.140625q0.625 -0.1875 0.9375 -0.625q0.328125 -0.4375 0.328125 -1.078125q0 -0.625 -0.296875 -1.09375q-0.296875 -0.46875 -0.859375 -0.640625q-0.546875 -0.171875 -1.875 -0.171875l-2.484375 0l0 3.75zm0 5.71875l3.09375 0q0.796875 0 1.109375 -0.046875q0.578125 -0.109375 0.953125 -0.34375q0.375 -0.234375 0.625 -0.6875q0.25 -0.453125 0.25 -1.046875q0 -0.703125 -0.359375 -1.203125q-0.359375 -0.515625 -0.984375 -0.71875q-0.625 -0.21875 -1.8125 -0.21875l-2.875 0l0 4.265625zm9.229599 -3.03125q0 -2.484375 1.390625 -3.6875q1.15625 -1.0 2.8125 -1.0q1.859375 0 3.03125 1.21875q1.1875 1.203125 1.1875 3.34375q0 1.734375 -0.53125 2.734375q-0.515625 1.0 -1.515625 1.546875q-0.984375 0.546875 -2.171875 0.546875q-1.875 0 -3.046875 -1.203125q-1.15625 -1.21875 -1.15625 -3.5zm1.5625 0q0 1.734375 0.75 2.59375q0.75 0.859375 1.890625 0.859375q1.140625 0 1.890625 -0.859375q0.75 -0.875 0.75 -2.640625q0 -1.65625 -0.75 -2.515625q-0.75 -0.859375 -1.890625 -0.859375q-1.140625 0 -1.890625 0.859375q-0.75 0.84375 -0.75 2.5625zm10.043335 4.5l-1.40625 0l0 -12.40625l1.515625 0l0 4.421875q0.96875 -1.203125 2.46875 -1.203125q0.828125 0 1.5625 0.34375q0.734375 0.328125 1.21875 0.9375q0.484375 0.59375 0.75 1.453125q0.265625 0.859375 0.265625 1.828125q0 2.3125 -1.140625 3.578125q-1.140625 1.25 -2.734375 1.25q-1.59375 0 -2.5 -1.328125l0 1.125zm-0.015625 -4.5625q0 1.625 0.4375 2.34375q0.71875 1.171875 1.953125 1.171875q1.0 0 1.71875 -0.859375q0.734375 -0.875 0.734375 -2.59375q0 -1.765625 -0.703125 -2.59375q-0.703125 -0.84375 -1.6875 -0.84375q-1.0 0 -1.734375 0.875q-0.71875 0.859375 -0.71875 2.5z" fill-rule="nonzero"/><path fill="#000000" fill-opacity="0.0" d="m486.71152 23.958006l154.3937 0l0 42.23622l-154.3937 0z" fill-rule="evenodd"/><path stroke="#ffffff" stroke-width="3.0" stroke-linejoin="round" stroke-linecap="butt" d="m486.71152 23.958006l154.3937 0l0 42.23622l-154.3937 0z" fill-rule="evenodd"/><path fill="#ffffff" d="m545.0979 51.216114l4.765625 -12.40625l1.765625 0l5.078125 12.40625l-1.859375 0l-1.453125 -3.75l-5.1875 0l-1.359375 3.75l-1.75 0zm3.578125 -5.09375l4.21875 0l-1.296875 -3.4375q-0.59375 -1.5625 -0.890625 -2.5625q-0.234375 1.1875 -0.65625 2.359375l-1.375 3.640625zm9.120239 5.09375l0 -12.40625l1.515625 0l0 12.40625l-1.515625 0zm3.8966064 -10.65625l0 -1.75l1.515625 0l0 1.75l-1.515625 0zm0 10.65625l0 -8.984375l1.515625 0l0 8.984375l-1.515625 0zm9.6935425 -3.296875l1.5 0.203125q-0.234375 1.546875 -1.25 2.421875q-1.015625 0.875 -2.484375 0.875q-1.84375 0 -2.96875 -1.203125q-1.125 -1.203125 -1.125 -3.453125q0 -1.46875 0.484375 -2.546875q0.484375 -1.09375 1.46875 -1.640625q0.984375 -0.546875 2.140625 -0.546875q1.46875 0 2.390625 0.75q0.9375 0.734375 1.203125 2.09375l-1.484375 0.21875q-0.203125 -0.890625 -0.75 -1.34375q-0.53125 -0.46875 -1.296875 -0.46875q-1.140625 0 -1.875 0.828125q-0.71875 0.828125 -0.71875 2.609375q0 1.8125 0.6875 2.640625q0.703125 0.8125 1.828125 0.8125q0.890625 0 1.484375 -0.546875q0.609375 -0.5625 0.765625 -1.703125zm8.9609375 0.40625l1.5625 0.1875q-0.359375 1.390625 -1.375 2.15625q-1.0 0.75 -2.5625 0.75q-1.984375 0 -3.140625 -1.203125q-1.140625 -1.21875 -1.140625 -3.421875q0 -2.265625 1.15625 -3.515625q1.171875 -1.25 3.03125 -1.25q1.8125 0 2.953125 1.234375q1.140625 1.21875 1.140625 3.4375q0 0.140625 -0.015625 0.40625l-6.703125 0q0.09375 1.484375 0.84375 2.28125q0.75 0.78125 1.875 0.78125q0.84375 0 1.4375 -0.4375q0.59375 -0.4375 0.9375 -1.40625zm-5.0 -2.46875l5.015625 0q-0.109375 -1.125 -0.578125 -1.703125q-0.734375 -0.875 -1.890625 -0.875q-1.046875 0 -1.765625 0.703125q-0.703125 0.703125 -0.78125 1.875z" fill-rule="nonzero"/><path fill="#000000" fill-opacity="0.0" d="m144.57547 156.09349l419.3386 0" fill-rule="evenodd"/><path stroke="#ffffff" stroke-width="3.0" stroke-linejoin="round" stroke-linecap="butt" d="m144.57547 156.09349l409.05734 0" fill-rule="evenodd"/><path fill="#ffffff" stroke="#ffffff" stroke-width="3.0" stroke-linecap="butt" d="m553.6328 156.09349l-3.3737793 3.3737488l9.269287 -3.3737488l-9.269287 -3.3737488z" fill-rule="evenodd"/><path fill="#000000" fill-opacity="0.0" d="m270.81342 118.72468l154.3937 0l0 37.354332l-154.3937 0z" fill-rule="evenodd"/><path fill="#ffffff" d="m321.96442 144.32184l0 -13.359375l4.609375 0q1.546875 0 2.375 0.203125q1.140625 0.25 1.953125 0.953125q1.0625 0.890625 1.578125 2.28125q0.53125 1.390625 0.53125 3.171875q0 1.515625 -0.359375 2.703125q-0.359375 1.171875 -0.921875 1.9375q-0.546875 0.765625 -1.203125 1.21875q-0.65625 0.4375 -1.59375 0.671875q-0.9375 0.21875 -2.140625 0.21875l-4.828125 0zm1.765625 -1.578125l2.859375 0q1.3125 0 2.0625 -0.234375q0.75 -0.25 1.203125 -0.703125q0.625 -0.625 0.96875 -1.6875q0.359375 -1.0625 0.359375 -2.578125q0 -2.09375 -0.6875 -3.21875q-0.6875 -1.125 -1.671875 -1.5q-0.703125 -0.28125 -2.28125 -0.28125l-2.8125 0l0 10.203125zm17.816711 0.390625q-0.921875 0.765625 -1.765625 1.09375q-0.828125 0.3125 -1.796875 0.3125q-1.59375 0 -2.453125 -0.78125q-0.859375 -0.78125 -0.859375 -1.984375q0 -0.71875 0.328125 -1.296875q0.328125 -0.59375 0.84375 -0.9375q0.53125 -0.359375 1.1875 -0.546875q0.46875 -0.125 1.453125 -0.25q1.984375 -0.234375 2.921875 -0.5625q0.015625 -0.34375 0.015625 -0.421875q0 -1.0 -0.46875 -1.421875q-0.625 -0.546875 -1.875 -0.546875q-1.15625 0 -1.703125 0.40625q-0.546875 0.40625 -0.8125 1.421875l-1.609375 -0.21875q0.21875 -1.015625 0.71875 -1.640625q0.5 -0.640625 1.453125 -0.984375q0.953125 -0.34375 2.1875 -0.34375q1.25 0 2.015625 0.296875q0.78125 0.28125 1.140625 0.734375q0.375 0.4375 0.515625 1.109375q0.078125 0.421875 0.078125 1.515625l0 2.1875q0 2.28125 0.109375 2.890625q0.109375 0.59375 0.40625 1.15625l-1.703125 0q-0.265625 -0.515625 -0.328125 -1.1875zm-0.140625 -3.671875q-0.890625 0.375 -2.671875 0.625q-1.015625 0.140625 -1.4375 0.328125q-0.421875 0.1875 -0.65625 0.53125q-0.21875 0.34375 -0.21875 0.78125q0 0.65625 0.5 1.09375q0.5 0.4375 1.453125 0.4375q0.9375 0 1.671875 -0.40625q0.75 -0.421875 1.09375 -1.140625q0.265625 -0.5625 0.265625 -1.640625l0 -0.609375zm7.781952 3.390625l0.234375 1.453125q-0.6875 0.140625 -1.234375 0.140625q-0.890625 0 -1.390625 -0.28125q-0.484375 -0.28125 -0.6875 -0.734375q-0.203125 -0.46875 -0.203125 -1.9375l0 -5.578125l-1.203125 0l0 -1.265625l1.203125 0l0 -2.390625l1.625 -0.984375l0 3.375l1.65625 0l0 1.265625l-1.65625 0l0 5.671875q0 0.6875 0.078125 0.890625q0.09375 0.203125 0.28125 0.328125q0.203125 0.109375 0.578125 0.109375q0.265625 0 0.71875 -0.0625zm7.917694 0.28125q-0.921875 0.765625 -1.765625 1.09375q-0.828125 0.3125 -1.796875 0.3125q-1.59375 0 -2.453125 -0.78125q-0.859375 -0.78125 -0.859375 -1.984375q0 -0.71875 0.328125 -1.296875q0.328125 -0.59375 0.84375 -0.9375q0.53125 -0.359375 1.1875 -0.546875q0.46875 -0.125 1.453125 -0.25q1.984375 -0.234375 2.921875 -0.5625q0.015625 -0.34375 0.015625 -0.421875q0 -1.0 -0.46875 -1.421875q-0.625 -0.546875 -1.875 -0.546875q-1.15625 0 -1.703125 0.40625q-0.546875 0.40625 -0.8125 1.421875l-1.609375 -0.21875q0.21875 -1.015625 0.71875 -1.640625q0.5 -0.640625 1.453125 -0.984375q0.953125 -0.34375 2.1875 -0.34375q1.25 0 2.015625 0.296875q0.78125 0.28125 1.140625 0.734375q0.375 0.4375 0.515625 1.109375q0.078125 0.421875 0.078125 1.515625l0 2.1875q0 2.28125 0.109375 2.890625q0.109375 0.59375 0.40625 1.15625l-1.703125 0q-0.265625 -0.515625 -0.328125 -1.1875zm-0.140625 -3.671875q-0.890625 0.375 -2.671875 0.625q-1.015625 0.140625 -1.4375 0.328125q-0.421875 0.1875 -0.65625 0.53125q-0.21875 0.34375 -0.21875 0.78125q0 0.65625 0.5 1.09375q0.5 0.4375 1.453125 0.4375q0.9375 0 1.671875 -0.40625q0.75 -0.421875 1.09375 -1.140625q0.265625 -0.5625 0.265625 -1.640625l0 -0.609375zm8.934021 -1.734375q0 -2.359375 0.484375 -3.796875q0.484375 -1.453125 1.4375 -2.234375q0.96875 -0.78125 2.421875 -0.78125q1.078125 0 1.890625 0.4375q0.8125 0.421875 1.328125 1.25q0.53125 0.8125 0.828125 1.984375q0.3125 1.15625 0.3125 3.140625q0 2.359375 -0.484375 3.8125q-0.484375 1.4375 -1.453125 2.234375q-0.953125 0.78125 -2.421875 0.78125q-1.921875 0 -3.03125 -1.390625q-1.3125 -1.671875 -1.3125 -5.4375zm1.671875 0q0 3.296875 0.765625 4.390625q0.78125 1.078125 1.90625 1.078125q1.140625 0 1.90625 -1.09375q0.765625 -1.09375 0.765625 -4.375q0 -3.296875 -0.765625 -4.375q-0.765625 -1.078125 -1.921875 -1.078125q-1.125 0 -1.796875 0.953125q-0.859375 1.21875 -0.859375 4.5z" fill-rule="nonzero"/><path fill="#000000" fill-opacity="0.0" d="m144.57547 344.27216l419.3386 0" fill-rule="evenodd"/><path stroke="#ffffff" stroke-width="3.0" stroke-linejoin="round" stroke-linecap="butt" d="m144.57547 344.27216l409.05734 0" fill-rule="evenodd"/><path fill="#ffffff" stroke="#ffffff" stroke-width="3.0" stroke-linecap="butt" d="m553.6328 344.27216l-3.3737793 3.3737488l9.269287 -3.3737488l-9.269287 -3.3737488z" fill-rule="evenodd"/><path fill="#000000" fill-opacity="0.0" d="m270.81342 306.90668l154.3937 0l0 37.35434l-154.3937 0z" fill-rule="evenodd"/><path fill="#ffffff" d="m321.96442 332.50385l0 -13.359375l4.609375 0q1.546875 0 2.375 0.203125q1.140625 0.25 1.953125 0.953125q1.0625 0.890625 1.578125 2.28125q0.53125 1.390625 0.53125 3.171875q0 1.515625 -0.359375 2.703125q-0.359375 1.171875 -0.921875 1.9375q-0.546875 0.765625 -1.203125 1.21875q-0.65625 0.4375 -1.59375 0.671875q-0.9375 0.21875 -2.140625 0.21875l-4.828125 0zm1.765625 -1.578125l2.859375 0q1.3125 0 2.0625 -0.234375q0.75 -0.25 1.203125 -0.703125q0.625 -0.625 0.96875 -1.6875q0.359375 -1.0625 0.359375 -2.578125q0 -2.09375 -0.6875 -3.21875q-0.6875 -1.125 -1.671875 -1.5q-0.703125 -0.28125 -2.28125 -0.28125l-2.8125 0l0 10.203125zm17.816711 0.390625q-0.921875 0.765625 -1.765625 1.09375q-0.828125 0.3125 -1.796875 0.3125q-1.59375 0 -2.453125 -0.78125q-0.859375 -0.78125 -0.859375 -1.984375q0 -0.71875 0.328125 -1.296875q0.328125 -0.59375 0.84375 -0.9375q0.53125 -0.359375 1.1875 -0.546875q0.46875 -0.125 1.453125 -0.25q1.984375 -0.234375 2.921875 -0.5625q0.015625 -0.34375 0.015625 -0.421875q0 -1.0 -0.46875 -1.421875q-0.625 -0.546875 -1.875 -0.546875q-1.15625 0 -1.703125 0.40625q-0.546875 0.40625 -0.8125 1.421875l-1.609375 -0.21875q0.21875 -1.015625 0.71875 -1.640625q0.5 -0.640625 1.453125 -0.984375q0.953125 -0.34375 2.1875 -0.34375q1.25 0 2.015625 0.296875q0.78125 0.28125 1.140625 0.734375q0.375 0.4375 0.515625 1.109375q0.078125 0.421875 0.078125 1.515625l0 2.1875q0 2.28125 0.109375 2.890625q0.109375 0.59375 0.40625 1.15625l-1.703125 0q-0.265625 -0.515625 -0.328125 -1.1875zm-0.140625 -3.671875q-0.890625 0.375 -2.671875 0.625q-1.015625 0.140625 -1.4375 0.328125q-0.421875 0.1875 -0.65625 0.53125q-0.21875 0.34375 -0.21875 0.78125q0 0.65625 0.5 1.09375q0.5 0.4375 1.453125 0.4375q0.9375 0 1.671875 -0.40625q0.75 -0.421875 1.09375 -1.140625q0.265625 -0.5625 0.265625 -1.640625l0 -0.609375zm7.781952 3.390625l0.234375 1.453125q-0.6875 0.140625 -1.234375 0.140625q-0.890625 0 -1.390625 -0.28125q-0.484375 -0.28125 -0.6875 -0.734375q-0.203125 -0.46875 -0.203125 -1.9375l0 -5.578125l-1.203125 0l0 -1.265625l1.203125 0l0 -2.390625l1.625 -0.984375l0 3.375l1.65625 0l0 1.265625l-1.65625 0l0 5.671875q0 0.6875 0.078125 0.890625q0.09375 0.203125 0.28125 0.328125q0.203125 0.109375 0.578125 0.109375q0.265625 0 0.71875 -0.0625zm7.917694 0.28125q-0.921875 0.765625 -1.765625 1.09375q-0.828125 0.3125 -1.796875 0.3125q-1.59375 0 -2.453125 -0.78125q-0.859375 -0.78125 -0.859375 -1.984375q0 -0.71875 0.328125 -1.296875q0.328125 -0.59375 0.84375 -0.9375q0.53125 -0.359375 1.1875 -0.546875q0.46875 -0.125 1.453125 -0.25q1.984375 -0.234375 2.921875 -0.5625q0.015625 -0.34375 0.015625 -0.421875q0 -1.0 -0.46875 -1.421875q-0.625 -0.546875 -1.875 -0.546875q-1.15625 0 -1.703125 0.40625q-0.546875 0.40625 -0.8125 1.421875l-1.609375 -0.21875q0.21875 -1.015625 0.71875 -1.640625q0.5 -0.640625 1.453125 -0.984375q0.953125 -0.34375 2.1875 -0.34375q1.25 0 2.015625 0.296875q0.78125 0.28125 1.140625 0.734375q0.375 0.4375 0.515625 1.109375q0.078125 0.421875 0.078125 1.515625l0 2.1875q0 2.28125 0.109375 2.890625q0.109375 0.59375 0.40625 1.15625l-1.703125 0q-0.265625 -0.515625 -0.328125 -1.1875zm-0.140625 -3.671875q-0.890625 0.375 -2.671875 0.625q-1.015625 0.140625 -1.4375 0.328125q-0.421875 0.1875 -0.65625 0.53125q-0.21875 0.34375 -0.21875 0.78125q0 0.65625 0.5 1.09375q0.5 0.4375 1.453125 0.4375q0.9375 0 1.671875 -0.40625q0.75 -0.421875 1.09375 -1.140625q0.265625 -0.5625 0.265625 -1.640625l0 -0.609375zm15.105896 4.859375l-1.640625 0l0 -10.453125q-0.59375 0.5625 -1.5625 1.140625q-0.953125 0.5625 -1.71875 0.84375l0 -1.59375q1.375 -0.640625 2.40625 -1.5625q1.03125 -0.921875 1.453125 -1.78125l1.0625 0l0 13.40625z" fill-rule="nonzero"/><path fill="#000000" fill-opacity="0.0" d="m560.1625 361.87952l-418.70868 78.74017" fill-rule="evenodd"/><path stroke="#ffffff" stroke-width="3.0" stroke-linejoin="round" stroke-linecap="butt" stroke-dasharray="12.0,9.0" d="m560.1624 361.87952l-408.6045 76.84003" fill-rule="evenodd"/><path fill="#ffffff" stroke="#ffffff" stroke-width="3.0" stroke-linecap="butt" d="m151.55792 438.71954l2.6921234 -3.939148l-8.4861145 5.028717l9.733154 1.6025391z" fill-rule="evenodd"/><path fill="#000000" fill-opacity="0.0" d="m266.6788 375.5449l152.8819 -31.24408l6.551178 38.48819l-152.8819 31.24408z" fill-rule="evenodd"/><path fill="#ffffff" d="m321.1129 391.39688l2.7783203 -14.203308l1.8676453 -0.38168335l7.6009216 12.082123l-1.974823 0.40359497l-2.1949768 -3.6819458l-5.4804688 1.1200256l-0.7595825 4.2857666l-1.8370361 0.37542725zm2.860443 -6.182312l4.439514 -0.9072876l-1.9995117 -3.3710327q-0.8956604 -1.5393372 -1.382843 -2.5401917q-0.045135498 1.3169556 -0.2765808 2.6560364l-0.7805786 4.1624756zm19.321411 -3.135315l1.8059387 0.09341431q-0.1864624 2.2548523 -1.4007263 3.6831665q-1.2168884 1.4129028 -3.2682495 1.8321228q-2.1125793 0.4317627 -3.591339 -0.15911865q-1.4660645 -0.60943604 -2.4483337 -2.0991821q-0.969574 -1.5082703 -1.2922363 -3.4039307q-0.34890747 -2.0497742 0.17211914 -3.7351074q0.5184326 -1.7007446 1.8236389 -2.7808228q1.3179016 -1.0986328 3.04776 -1.4521484q1.9595032 -0.40048218 3.4618835 0.32910156q1.5176697 0.72647095 2.3503113 2.4541016l-1.6310425 0.74798584q-0.70321655 -1.339447 -1.6859741 -1.8084106q-0.9700928 -0.4875183 -2.2713318 -0.22158813q-1.5155334 0.3097229 -2.4026184 1.2405701q-0.88705444 0.93084717 -1.0905457 2.2482605q-0.2060852 1.302002 0.016906738 2.61203q0.2859192 1.6798706 0.98828125 2.828125q0.70236206 1.1482544 1.8356018 1.5705261q1.1306152 0.40686035 2.3246765 0.16281128q1.4543152 -0.2972107 2.320404 -1.3513489q0.86608887 -1.0541382 0.9348755 -2.7905579zm4.572296 3.849945l-2.2428894 -13.177124l1.7451782 -0.35665894l1.1122742 6.534607l5.37854 -7.8611145l2.3422241 -0.4786682l-4.5701904 6.467926l7.0580444 6.6591187l-2.2809753 0.466156l-5.805023 -5.7190857l-1.7684937 2.5462952l0.77648926 4.5618896l-1.7451782 0.35665894zm22.750397 -4.6494446l-1.6073914 0.3284912l-1.7549744 -10.310516q-0.4873047 0.67370605 -1.339386 1.4379272q-0.83935547 0.7456665 -1.5422668 1.1763916l-0.26757812 -1.5720215q1.2395935 -0.90719604 2.0951843 -2.0229797q0.8555908 -1.1157837 1.1246338 -2.0479126l1.0409851 -0.21273804l2.2507935 13.223358z" fill-rule="nonzero"/><path fill="#000000" fill-opacity="0.0" d="m562.7137 172.25308l-419.33856 86.33072" fill-rule="evenodd"/><path stroke="#ffffff" stroke-width="3.0" stroke-linejoin="round" stroke-linecap="butt" stroke-dasharray="12.0,9.0" d="m562.7137 172.2531l-409.2685 84.25755" fill-rule="evenodd"/><path fill="#ffffff" stroke="#ffffff" stroke-width="3.0" stroke-linecap="butt" d="m153.44518 256.51065l2.6241455 -3.9847565l-8.398605 5.1735687l9.759201 1.4353333z" fill-rule="evenodd"/><path fill="#000000" fill-opacity="0.0" d="m266.67902 188.39977l152.8819 -31.244095l6.551178 38.48819l-152.8819 31.244095z" fill-rule="evenodd"/><path fill="#ffffff" d="m321.11313 204.25174l2.7782898 -14.203293l1.8676758 -0.38168335l7.600891 12.082123l-1.9747925 0.4035797l-2.1949768 -3.6819305l-5.4804688 1.1200256l-0.7595825 4.2857513l-1.8370361 0.37542725zm2.860443 -6.182312l4.4394836 -0.9072876l-1.9994812 -3.3710327q-0.8956604 -1.5393372 -1.382843 -2.5401917q-0.045135498 1.3169708 -0.2765808 2.6560516l-0.7805786 4.1624603zm19.32138 -3.135315l1.8059692 0.09341431q-0.18649292 2.2548676 -1.4007568 3.6831818q-1.2168884 1.4128876 -3.268219 1.8321228q-2.1126099 0.43173218 -3.591339 -0.15913391q-1.4660645 -0.6094208 -2.4483337 -2.0991669q-0.969574 -1.5082703 -1.2922363 -3.4039307q-0.34890747 -2.0497742 0.17211914 -3.7351074q0.5184021 -1.7007446 1.8236389 -2.780838q1.3179016 -1.0986328 3.04776 -1.4521484q1.9595032 -0.40046692 3.461853 0.32911682q1.5176697 0.7264557 2.3503418 2.4541016l-1.6310425 0.7479706q-0.70321655 -1.339447 -1.6860046 -1.8084106q-0.97006226 -0.48750305 -2.2713013 -0.22157288q-1.5155334 0.3097229 -2.4026184 1.2405701q-0.88708496 0.9308319 -1.0905457 2.2482605q-0.2060852 1.302002 0.016906738 2.6120148q0.2859192 1.6798859 0.98828125 2.828125q0.70236206 1.1482544 1.8356018 1.5705261q1.1306152 0.40686035 2.3246765 0.16282654q1.4543152 -0.2972107 2.320404 -1.3513489q0.86608887 -1.0541382 0.934845 -2.7905731zm4.5723267 3.849945l-2.24292 -13.177124l1.7451782 -0.35665894l1.1122742 6.534622l5.3785706 -7.8611298l2.3422241 -0.47868347l-4.5701904 6.4679413l7.0580444 6.659134l-2.2809753 0.466156l-5.805023 -5.719116l-1.7684937 2.5462952l0.77648926 4.561905l-1.7451782 0.35665894zm15.596466 -9.91745q-0.39611816 -2.327179 -0.16287231 -3.8420563q0.23059082 -1.5302887 1.0332336 -2.4917297q0.81799316 -0.96455383 2.2416687 -1.2555237q1.0563049 -0.21586609 1.9258118 0.052978516q0.8668518 0.25343323 1.5110779 0.96702576q0.65689087 0.69503784 1.1445007 1.7914886q0.5003052 1.0778961 0.8334656 3.035202q0.39611816 2.3271942 0.16552734 3.857483q-0.23321533 1.5148773 -1.048584 2.4948425q-0.8026428 0.96144104 -2.2416687 1.2555237q-1.8829346 0.3848114 -3.2033386 -0.7647095q-1.5665894 -1.386261 -2.198822 -5.100525zm1.638031 -0.3347473q0.5534973 3.251892 1.4872742 4.177414q0.94641113 0.9069977 2.048645 0.6817322q1.1175232 -0.2283783 1.684021 -1.4605103q0.5664673 -1.232132 0.015594482 -4.4686127q-0.55352783 -3.2519073 -1.4846497 -4.162018q-0.9311218 -0.91012573 -2.0639648 -0.6786041q-1.1022034 0.2252655 -1.6004639 1.2999115q-0.6373596 1.3741913 -0.0864563 4.6106873z" fill-rule="nonzero"/></g></svg>