<svg version="1.1" viewBox="0.0 0.0 706.4120734908137 543.4776902887139" fill="none" stroke="none" stroke-linecap="square" stroke-miterlimit="10" xmlns:xlink="http://www.w3.org/1999/xlink" xmlns="http://www.w3.org/2000/svg"><clipPath id="p.0"><path d="m0 0l706.41205 0l0 543.47766l-706.41205 0l0 -543.47766z" clip-rule="nonzero"/></clipPath><g clip-path="url(#p.0)"><path fill="#000000" fill-opacity="0.0" d="m0 0l706.41205 0l0 543.47766l-706.41205 0z" fill-rule="evenodd"/><path fill="#000000" fill-opacity="0.0" d="m141.98454 66.18356l0.8818817 452.7244" fill-rule="evenodd"/><path stroke="#ffffff" stroke-width="3.0" stroke-linejoin="round" stroke-linecap="butt" d="m141.98454 66.18356l0.8818817 452.7244" fill-rule="evenodd"/><path fill="#000000" fill-opacity="0.0" d="m563.3916 67.267296l-1.1968384 452.25198" fill-rule="evenodd"/><path stroke="#ffffff" stroke-width="3.0" stroke-linejoin="round" stroke-linecap="butt" d="m563.3916 67.267296l-1.1968384 452.25198" fill-rule="evenodd"/><path fill="#000000" fill-opacity="0.0" d="m65.30446 23.958006l154.3937 0l0 42.23622l-154.3937 0z" fill-rule="evenodd"/><path stroke="#ffffff" stroke-width="3.0" stroke-linejoin="round" stroke-linecap="butt" d="m65.30446 23.958006l154.3937 0l0 42.23622l-154.3937 0z" fill-rule="evenodd"/><path fill="#ffffff" d="m128.351 51.216114l0 -12.40625l4.65625 0q1.421875 0 2.28125 0.375q0.859375 0.375 1.34375 1.171875q0.484375 0.78125 0.484375 1.625q0 0.796875 -0.4375 1.5q-0.421875 0.703125 -1.296875 1.140625q1.125 0.328125 1.734375 1.125q0.609375 0.796875 0.609375 1.875q0 0.875 -0.375 1.625q-0.359375 0.734375 -0.90625 1.140625q-0.546875 0.40625 -1.359375 0.625q-0.8125 0.203125 -2.0 0.203125l-4.734375 0zm1.640625 -7.1875l2.6875 0q1.09375 0 1.5625 -0.140625q0.625 -0.1875 0.9375 -0.625q0.328125 -0.4375 0.328125 -1.078125q0 -0.625 -0.296875 -1.09375q-0.296875 -0.46875 -0.859375 -0.640625q-0.546875 -0.171875 -1.875 -0.171875l-2.484375 0l0 3.75zm0 5.71875l3.09375 0q0.796875 0 1.109375 -0.046875q0.578125 -0.109375 0.953125 -0.34375q0.375 -0.234375 0.625 -0.6875q0.25 -0.453125 0.25 -1.046875q0 -0.703125 -0.359375 -1.203125q-0.359375 -0.515625 -0.984375 -0.71875q-0.625 -0.21875 -1.8125 -0.21875l-2.875 0l0 4.265625zm9.229599 -3.03125q0 -2.484375 1.390625 -3.6875q1.15625 -1.0 2.8125 -1.0q1.859375 0 3.03125 1.21875q1.1875 1.203125 1.1875 3.34375q0 1.734375 -0.53125 2.734375q-0.515625 1.0 -1.515625 1.546875q-0.984375 0.546875 -2.171875 0.546875q-1.875 0 -3.046875 -1.203125q-1.15625 -1.21875 -1.15625 -3.5zm1.5625 0q0 1.734375 0.75 2.59375q0.75 0.859375 1.890625 0.859375q1.140625 0 1.890625 -0.859375q0.75 -0.875 0.75 -2.640625q0 -1.65625 -0.75 -2.515625q-0.75 -0.859375 -1.890625 -0.859375q-1.140625 0 -1.890625 0.859375q-0.75 0.84375 -0.75 2.5625zm10.043335 4.5l-1.40625 0l0 -12.40625l1.515625 0l0 4.421875q0.96875 -1.203125 2.46875 -1.203125q0.828125 0 1.5625 0.34375q0.734375 0.328125 1.21875 0.9375q0.484375 0.59375 0.75 1.453125q0.265625 0.859375 0.265625 1.828125q0 2.3125 -1.140625 3.578125q-1.140625 1.25 -2.734375 1.25q-1.59375 0 -2.5 -1.328125l0 1.125zm-0.015625 -4.5625q0 1.625 0.4375 2.34375q0.71875 1.171875 1.953125 1.171875q1.0 0 1.71875 -0.859375q0.734375 -0.875 0.734375 -2.59375q0 -1.765625 -0.703125 -2.59375q-0.703125 -0.84375 -1.6875 -0.84375q-1.0 0 -1.734375 0.875q-0.71875 0.859375 -0.71875 2.5z" fill-rule="nonzero"/><path fill="#000000" fill-opacity="0.0" d="m486.71152 23.958006l154.3937 0l0 42.23622l-154.3937 0z" fill-rule="evenodd"/><path stroke="#ffffff" stroke-width="3.0" stroke-linejoin="round" stroke-linecap="butt" d="m486.71152 23.958006l154.3937 0l0 42.23622l-154.3937 0z" fill-rule="evenodd"/><path fill="#ffffff" d="m545.0979 51.216114l4.765625 -12.40625l1.765625 0l5.078125 12.40625l-1.859375 0l-1.453125 -3.75l-5.1875 0l-1.359375 3.75l-1.75 0zm3.578125 -5.09375l4.21875 0l-1.296875 -3.4375q-0.59375 -1.5625 -0.890625 -2.5625q-0.234375 1.1875 -0.65625 2.359375l-1.375 3.640625zm9.120239 5.09375l0 -12.40625l1.515625 0l0 12.40625l-1.515625 0zm3.8966064 -10.65625l0 -1.75l1.515625 0l0 1.75l-1.515625 0zm0 10.65625l0 -8.984375l1.515625 0l0 8.984375l-1.515625 0zm9.6935425 -3.296875l1.5 0.203125q-0.234375 1.546875 -1.25 2.421875q-1.015625 0.875 -2.484375 0.875q-1.84375 0 -2.96875 -1.203125q-1.125 -1.203125 -1.125 -3.453125q0 -1.46875 0.484375 -2.546875q0.484375 -1.09375 1.46875 -1.640625q0.984375 -0.546875 2.140625 -0.546875q1.46875 0 2.390625 0.75q0.9375 0.734375 1.203125 2.09375l-1.484375 0.21875q-0.203125 -0.890625 -0.75 -1.34375q-0.53125 -0.46875 -1.296875 -0.46875q-1.140625 0 -1.875 0.828125q-0.71875 0.828125 -0.71875 2.609375q0 1.8125 0.6875 2.640625q0.703125 0.8125 1.828125 0.8125q0.890625 0 1.484375 -0.546875q0.609375 -0.5625 0.765625 -1.703125zm8.9609375 0.40625l1.5625 0.1875q-0.359375 1.390625 -1.375 2.15625q-1.0 0.75 -2.5625 0.75q-1.984375 0 -3.140625 -1.203125q-1.140625 -1.21875 -1.140625 -3.421875q0 -2.265625 1.15625 -3.515625q1.171875 -1.25 3.03125 -1.25q1.8125 0 2.953125 1.234375q1.140625 1.21875 1.140625 3.4375q0 0.140625 -0.015625 0.40625l-6.703125 0q0.09375 1.484375 0.84375 2.28125q0.75 0.78125 1.875 0.78125q0.84375 0 1.4375 -0.4375q0.59375 -0.4375 0.9375 -1.40625zm-5.0 -2.46875l5.015625 0q-0.109375 -1.125 -0.578125 -1.703125q-0.734375 -0.875 -1.890625 -0.875q-1.046875 0 -1.765625 0.703125q-0.703125 0.703125 -0.78125 1.875z" fill-rule="nonzero"/><path fill="#000000" fill-opacity="0.0" d="m144.57547 156.09349l419.3386 0" fill-rule="evenodd"/><path stroke="#ffffff" stroke-width="3.0" stroke-linejoin="round" stroke-linecap="butt" d="m144.57547 156.09349l409.05734 0" fill-rule="evenodd"/><path fill="#ffffff" stroke="#ffffff" stroke-width="3.0" stroke-linecap="butt" d="m553.6328 156.09349l-3.3737793 3.3737488l9.269287 -3.3737488l-9.269287 -3.3737488z" fill-rule="evenodd"/><path fill="#000000" fill-opacity="0.0" d="m270.81342 118.72468l154.3937 0l0 37.354332l-154.3937 0z" fill-rule="evenodd"/><path fill="#ffffff" d="m321.96442 144.32184l0 -13.359375l4.609375 0q1.546875 0 2.375 0.203125q1.140625 0.25 1.953125 0.953125q1.0625 0.890625 1.578125 2.28125q0.53125 1.390625 0.53125 3.171875q0 1.515625 -0.359375 2.703125q-0.359375 1.171875 -0.921875 1.9375q-0.546875 0.765625 -1.203125 1.21875q-0.65625 0.4375 -1.59375 0.671875q-0.9375 0.21875 -2.140625 0.21875l-4.828125 0zm1.765625 -1.578125l2.859375 0q1.3125 0 2.0625 -0.234375q0.75 -0.25 1.203125 -0.703125q0.625 -0.625 0.96875 -1.6875q0.359375 -1.0625 0.359375 -2.578125q0 -2.09375 -0.6875 -3.21875q-0.6875 -1.125 -1.671875 -1.5q-0.703125 -0.28125 -2.28125 -0.28125l-2.8125 0l0 10.203125zm17.816711 0.390625q-0.921875 0.765625 -1.765625 1.09375q-0.828125 0.3125 -1.796875 0.3125q-1.59375 0 -2.453125 -0.78125q-0.859375 -0.78125 -0.859375 -1.984375q0 -0.71875 0.328125 -1.296875q0.328125 -0.59375 0.84375 -0.9375q0.53125 -0.359375 1.1875 -0.546875q0.46875 -0.125 1.453125 -0.25q1.984375 -0.234375 2.921875 -0.5625q0.015625 -0.34375 0.015625 -0.421875q0 -1.0 -0.46875 -1.421875q-0.625 -0.546875 -1.875 -0.546875q-1.15625 0 -1.703125 0.40625q-0.546875 0.40625 -0.8125 1.421875l-1.609375 -0.21875q0.21875 -1.015625 0.71875 -1.640625q0.5 -0.640625 1.453125 -0.984375q0.953125 -0.34375 2.1875 -0.34375q1.25 0 2.015625 0.296875q0.78125 0.28125 1.140625 0.734375q0.375 0.4375 0.515625 1.109375q0.078125 0.421875 0.078125 1.515625l0 2.1875q0 2.28125 0.109375 2.890625q0.109375 0.59375 0.40625 1.15625l-1.703125 0q-0.265625 -0.515625 -0.328125 -1.1875zm-0.140625 -3.671875q-0.890625 0.375 -2.671875 0.625q-1.015625 0.140625 -1.4375 0.328125q-0.421875 0.1875 -0.65625 0.53125q-0.21875 0.34375 -0.21875 0.78125q0 0.65625 0.5 1.09375q0.5 0.4375 1.453125 0.4375q0.9375 0 1.671875 -0.40625q0.75 -0.421875 1.09375 -1.140625q0.265625 -0.5625 0.265625 -1.640625l0 -0.609375zm7.781952 3.390625l0.234375 1.453125q-0.6875 0.140625 -1.234375 0.140625q-0.890625 0 -1.390625 -0.28125q-0.484375 -0.28125 -0.6875 -0.734375q-0.203125 -0.46875 -0.203125 -1.9375l0 -5.578125l-1.203125 0l0 -1.265625l1.203125 0l0 -2.390625l1.625 -0.984375l0 3.375l1.65625 0l0 1.265625l-1.65625 0l0 5.671875q0 0.6875 0.078125 0.890625q0.09375 0.203125 0.28125 0.328125q0.203125 0.109375 0.578125 0.109375q0.265625 0 0.71875 -0.0625zm7.917694 0.28125q-0.921875 0.765625 -1.765625 1.09375q-0.828125 0.3125 -1.796875 0.3125q-1.59375 0 -2.453125 -0.78125q-0.859375 -0.78125 -0.859375 -1.984375q0 -0.71875 0.328125 -1.296875q0.328125 -0.59375 0.84375 -0.9375q0.53125 -0.359375 1.1875 -0.546875q0.46875 -0.125 1.453125 -0.25q1.984375 -0.234375 2.921875 -0.5625q0.015625 -0.34375 0.015625 -0.421875q0 -1.0 -0.46875 -1.421875q-0.625 -0.546875 -1.875 -0.546875q-1.15625 0 -1.703125 0.40625q-0.546875 0.40625 -0.8125 1.421875l-1.609375 -0.21875q0.21875 -1.015625 0.71875 -1.640625q0.5 -0.640625 1.453125 -0.984375q0.953125 -0.34375 2.1875 -0.34375q1.25 0 2.015625 0.296875q0.78125 0.28125 1.140625 0.734375q0.375 0.4375 0.515625 1.109375q0.078125 0.421875 0.078125 1.515625l0 2.1875q0 2.28125 0.109375 2.890625q0.109375 0.59375 0.40625 1.15625l-1.703125 0q-0.265625 -0.515625 -0.328125 -1.1875zm-0.140625 -3.671875q-0.890625 0.375 -2.671875 0.625q-1.015625 0.140625 -1.4375 0.328125q-0.421875 0.1875 -0.65625 0.53125q-0.21875 0.34375 -0.21875 0.78125q0 0.65625 0.5 1.09375q0.5 0.4375 1.453125 0.4375q0.9375 0 1.671875 -0.40625q0.75 -0.421875 1.09375 -1.140625q0.265625 -0.5625 0.265625 -1.640625l0 -0.609375zm8.934021 -1.734375q0 -2.359375 0.484375 -3.796875q0.484375 -1.453125 1.4375 -2.234375q0.96875 -0.78125 2.421875 -0.78125q1.078125 0 1.890625 0.4375q0.8125 0.421875 1.328125 1.25q0.53125 0.8125 0.828125 1.984375q0.3125 1.15625 0.3125 3.140625q0 2.359375 -0.484375 3.8125q-0.484375 1.4375 -1.453125 2.234375q-0.953125 0.78125 -2.421875 0.78125q-1.921875 0 -3.03125 -1.390625q-1.3125 -1.671875 -1.3125 -5.4375zm1.671875 0q0 3.296875 0.765625 4.390625q0.78125 1.078125 1.90625 1.078125q1.140625 0 1.90625 -1.09375q0.765625 -1.09375 0.765625 -4.375q0 -3.296875 -0.765625 -4.375q-0.765625 -1.078125 -1.921875 -1.078125q-1.125 0 -1.796875 0.953125q-0.859375 1.21875 -0.859375 4.5z" fill-rule="nonzero"/><path fill="#000000" fill-opacity="0.0" d="m144.57547 312.27216l419.3386 0" fill-rule="evenodd"/><path stroke="#ffffff" stroke-width="3.0" stroke-linejoin="round" stroke-linecap="butt" d="m144.57547 312.27216l409.05734 0" fill-rule="evenodd"/><path fill="#ffffff" stroke="#ffffff" stroke-width="3.0" stroke-linecap="butt" d="m553.6328 312.27216l-3.3737793 3.3737488l9.269287 -3.3737488l-9.269287 -3.3737488z" fill-rule="evenodd"/><path fill="#000000" fill-opacity="0.0" d="m270.81342 274.90668l154.3937 0l0 37.35434l-154.3937 0z" fill-rule="evenodd"/><path fill="#ffffff" d="m321.96442 300.50385l0 -13.359375l4.609375 0q1.546875 0 2.375 0.203125q1.140625 0.25 1.953125 0.953125q1.0625 0.890625 1.578125 2.28125q0.53125 1.390625 0.53125 3.171875q0 1.515625 -0.359375 2.703125q-0.359375 1.171875 -0.921875 1.9375q-0.546875 0.765625 -1.203125 1.21875q-0.65625 0.4375 -1.59375 0.671875q-0.9375 0.21875 -2.140625 0.21875l-4.828125 0zm1.765625 -1.578125l2.859375 0q1.3125 0 2.0625 -0.234375q0.75 -0.25 1.203125 -0.703125q0.625 -0.625 0.96875 -1.6875q0.359375 -1.0625 0.359375 -2.578125q0 -2.09375 -0.6875 -3.21875q-0.6875 -1.125 -1.671875 -1.5q-0.703125 -0.28125 -2.28125 -0.28125l-2.8125 0l0 10.203125zm17.816711 0.390625q-0.921875 0.765625 -1.765625 1.09375q-0.828125 0.3125 -1.796875 0.3125q-1.59375 0 -2.453125 -0.78125q-0.859375 -0.78125 -0.859375 -1.984375q0 -0.71875 0.328125 -1.296875q0.328125 -0.59375 0.84375 -0.9375q0.53125 -0.359375 1.1875 -0.546875q0.46875 -0.125 1.453125 -0.25q1.984375 -0.234375 2.921875 -0.5625q0.015625 -0.34375 0.015625 -0.421875q0 -1.0 -0.46875 -1.421875q-0.625 -0.546875 -1.875 -0.546875q-1.15625 0 -1.703125 0.40625q-0.546875 0.40625 -0.8125 1.421875l-1.609375 -0.21875q0.21875 -1.015625 0.71875 -1.640625q0.5 -0.640625 1.453125 -0.984375q0.953125 -0.34375 2.1875 -0.34375q1.25 0 2.015625 0.296875q0.78125 0.28125 1.140625 0.734375q0.375 0.4375 0.515625 1.109375q0.078125 0.421875 0.078125 1.515625l0 2.1875q0 2.28125 0.109375 2.890625q0.109375 0.59375 0.40625 1.15625l-1.703125 0q-0.265625 -0.515625 -0.328125 -1.1875zm-0.140625 -3.671875q-0.890625 0.375 -2.671875 0.625q-1.015625 0.140625 -1.4375 0.328125q-0.421875 0.1875 -0.65625 0.53125q-0.21875 0.34375 -0.21875 0.78125q0 0.65625 0.5 1.09375q0.5 0.4375 1.453125 0.4375q0.9375 0 1.671875 -0.40625q0.75 -0.421875 1.09375 -1.140625q0.265625 -0.5625 0.265625 -1.640625l0 -0.609375zm7.781952 3.390625l0.234375 1.453125q-0.6875 0.140625 -1.234375 0.140625q-0.890625 0 -1.390625 -0.28125q-0.484375 -0.28125 -0.6875 -0.734375q-0.203125 -0.46875 -0.203125 -1.9375l0 -5.578125l-1.203125 0l0 -1.265625l1.203125 0l0 -2.390625l1.625 -0.984375l0 3.375l1.65625 0l0 1.265625l-1.65625 0l0 5.671875q0 0.6875 0.078125 0.890625q0.09375 0.203125 0.28125 0.328125q0.203125 0.109375 0.578125 0.109375q0.265625 0 0.71875 -0.0625zm7.917694 0.28125q-0.921875 0.765625 -1.765625 1.09375q-0.828125 0.3125 -1.796875 0.3125q-1.59375 0 -2.453125 -0.78125q-0.859375 -0.78125 -0.859375 -1.984375q0 -0.71875 0.328125 -1.296875q0.328125 -0.59375 0.84375 -0.9375q0.53125 -0.359375 1.1875 -0.546875q0.46875 -0.125 1.453125 -0.25q1.984375 -0.234375 2.921875 -0.5625q0.015625 -0.34375 0.015625 -0.421875q0 -1.0 -0.46875 -1.421875q-0.625 -0.546875 -1.875 -0.546875q-1.15625 0 -1.703125 0.40625q-0.546875 0.40625 -0.8125 1.421875l-1.609375 -0.21875q0.21875 -1.015625 0.71875 -1.640625q0.5 -0.640625 1.453125 -0.984375q0.953125 -0.34375 2.1875 -0.34375q1.25 0 2.015625 0.296875q0.78125 0.28125 1.140625 0.734375q0.375 0.4375 0.515625 1.109375q0.078125 0.421875 0.078125 1.515625l0 2.1875q0 2.28125 0.109375 2.890625q0.109375 0.59375 0.40625 1.15625l-1.703125 0q-0.265625 -0.515625 -0.328125 -1.1875zm-0.140625 -3.671875q-0.890625 0.375 -2.671875 0.625q-1.015625 0.140625 -1.4375 0.328125q-0.421875 0.1875 -0.65625 0.53125q-0.21875 0.34375 -0.21875 0.78125q0 0.65625 0.5 1.09375q0.5 0.4375 1.453125 0.4375q0.9375 0 1.671875 -0.40625q0.75 -0.421875 1.09375 -1.140625q0.265625 -0.5625 0.265625 -1.640625l0 -0.609375zm8.934021 -1.734375q0 -2.359375 0.484375 -3.796875q0.484375 -1.453125 1.4375 -2.234375q0.96875 -0.78125 2.421875 -0.78125q1.078125 0 1.890625 0.4375q0.8125 0.421875 1.328125 1.25q0.53125 0.8125 0.828125 1.984375q0.3125 1.15625 0.3125 3.140625q0 2.359375 -0.484375 3.8125q-0.484375 1.4375 -1.453125 2.234375q-0.953125 0.78125 -2.421875 0.78125q-1.921875 0 -3.03125 -1.390625q-1.3125 -1.671875 -1.3125 -5.4375zm1.671875 0q0 3.296875 0.765625 4.390625q0.78125 1.078125 1.90625 1.078125q1.140625 0 1.90625 -1.09375q0.765625 -1.09375 0.765625 -4.375q0 -3.296875 -0.765625 -4.375q-0.765625 -1.078125 -1.921875 -1.078125q-1.125 0 -1.796875 0.953125q-0.859375 1.21875 -0.859375 4.5z" fill-rule="nonzero"/><path fill="#000000" fill-opacity="0.0" d="m560.1625 329.87952l-418.70868 78.74017" fill-rule="evenodd"/><path stroke="#ffffff" stroke-width="3.0" stroke-linejoin="round" stroke-linecap="butt" stroke-dasharray="12.0,9.0" d="m560.1624 329.87952l-408.6045 76.84003" fill-rule="evenodd"/><path fill="#ffffff" stroke="#ffffff" stroke-width="3.0" stroke-linecap="butt" d="m151.55792 406.71954l2.6921234 -3.939148l-8.4861145 5.028717l9.733154 1.6025391z" fill-rule="evenodd"/><path fill="#000000" fill-opacity="0.0" d="m266.6788 343.5449l152.8819 -31.24408l6.551178 38.48819l-152.8819 31.24408z" fill-rule="evenodd"/><path fill="#ffffff" d="m321.1129 359.39688l2.7783203 -14.203308l1.8676453 -0.38168335l7.6009216 12.082123l-1.974823 0.40359497l-2.1949768 -3.6819458l-5.4804688 1.1200256l-0.7595825 4.2857666l-1.8370361 0.37542725zm2.860443 -6.182312l4.439514 -0.9072876l-1.9995117 -3.3710327q-0.8956604 -1.5393372 -1.382843 -2.5401917q-0.045135498 1.3169556 -0.2765808 2.6560364l-0.7805786 4.1624756zm19.321411 -3.135315l1.8059387 0.09341431q-0.1864624 2.2548523 -1.4007263 3.6831665q-1.2168884 1.4129028 -3.2682495 1.8321228q-2.1125793 0.4317627 -3.591339 -0.15911865q-1.4660645 -0.60943604 -2.4483337 -2.0991821q-0.969574 -1.5082703 -1.2922363 -3.4039307q-0.34890747 -2.0497742 0.17211914 -3.7351074q0.5184326 -1.7007446 1.8236389 -2.7808228q1.3179016 -1.0986328 3.04776 -1.4521484q1.9595032 -0.40048218 3.4618835 0.32910156q1.5176697 0.72647095 2.3503113 2.4541016l-1.6310425 0.74798584q-0.70321655 -1.339447 -1.6859741 -1.8084106q-0.9700928 -0.4875183 -2.2713318 -0.22158813q-1.5155334 0.3097229 -2.4026184 1.2405701q-0.88705444 0.93084717 -1.0905457 2.2482605q-0.2060852 1.302002 0.016906738 2.61203q0.2859192 1.6798706 0.98828125 2.828125q0.70236206 1.1482544 1.8356018 1.5705261q1.1306152 0.40686035 2.3246765 0.16281128q1.4543152 -0.2972107 2.320404 -1.3513489q0.86608887 -1.0541382 0.9348755 -2.7905579zm4.572296 3.849945l-2.2428894 -13.177124l1.7451782 -0.35665894l1.1122742 6.534607l5.37854 -7.8611145l2.3422241 -0.4786682l-4.5701904 6.467926l7.0580444 6.6591187l-2.2809753 0.466156l-5.805023 -5.7190857l-1.7684937 2.5462952l0.77648926 4.5618896l-1.7451782 0.35665894zm15.596497 -9.91745q-0.39611816 -2.327179 -0.16290283 -3.8420715q0.23059082 -1.5302734 1.0332642 -2.4917297q0.81796265 -0.9645386 2.2416687 -1.2554932q1.0562744 -0.21588135 1.9257812 0.052947998q0.8668823 0.2534485 1.5110779 0.967041q0.6569214 0.69503784 1.1445312 1.7914734q0.50027466 1.0779114 0.83343506 3.0352173q0.39611816 2.327179 0.16552734 3.857483q-0.23321533 1.5148621 -1.0485535 2.4948425q-0.80267334 0.9614258 -2.2416687 1.2555237q-1.8829651 0.38479614 -3.2033386 -0.7647095q-1.5666199 -1.386261 -2.198822 -5.100525zm1.6380005 -0.3347473q0.55352783 3.251892 1.4872742 4.177429q0.94644165 0.9069824 2.048645 0.6817322q1.1175232 -0.22839355 1.684021 -1.4605408q0.5664978 -1.2321167 0.015594482 -4.4685974q-0.5534973 -3.251892 -1.4846497 -4.162018q-0.9311218 -0.91012573 -2.0639648 -0.6786194q-1.1022034 0.22528076 -1.6004639 1.2999268q-0.6373291 1.374176 -0.0864563 4.6106873z" fill-rule="nonzero"/><path fill="#000000" fill-opacity="0.0" d="m562.7137 172.25308l-253.5433 51.65355" fill-rule="evenodd"/><path stroke="#ffffff" stroke-width="3.0" stroke-linejoin="round" stroke-linecap="butt" stroke-dasharray="12.0,9.0" d="m562.7137 172.2531l-243.469 49.601135" fill-rule="evenodd"/><path fill="#ffffff" stroke="#ffffff" stroke-width="3.0" stroke-linecap="butt" d="m319.2447 221.85423l2.6323547 -3.9793396l-8.409241 5.15625l9.756226 1.4554443z" fill-rule="evenodd"/><path fill="#000000" fill-opacity="0.0" d="m356.23026 175.26495l152.91336 -31.02362l6.48822 38.519684l-152.91339 31.02362z" fill-rule="evenodd"/><path fill="#ffffff" d="m410.62918 191.20729l2.8024597 -14.200119l1.8681946 -0.37902832l7.579773 12.09375l-1.9754028 0.4007721l-2.1885376 -3.6853027l-5.4820557 1.1122131l-0.7668762 4.284912l-1.8375549 0.37280273zm2.8708496 -6.1785583l4.440796 -0.9009552l-1.9935913 -3.3740997q-0.89297485 -1.5407104 -1.378418 -2.5423126q-0.0473938 1.3169556 -0.28112793 2.6557922l-0.7876587 4.1615753zm19.325623 -3.1077423l1.8056641 0.09602356q-0.19030762 2.2547302 -1.4069519 3.6813812q-1.2192383 1.4112244 -3.2711792 1.8275299q-2.1132202 0.4287262 -3.5908508 -0.16430664q-1.4649353 -0.611557 -2.44458 -2.1027985q-0.96694946 -1.5097504 -1.2863464 -3.4059906q-0.34536743 -2.0503845 0.17852783 -3.7350616q0.52130127 -1.7001038 1.8282776 -2.7783813q1.3197021 -1.0968018 3.0500793 -1.4478607q1.9600525 -0.3976593 3.46109 0.3341217q1.5163269 0.7286682 2.3459778 2.457611l-1.6322327 0.74568176q-0.7008667 -1.3405304 -1.6827698 -1.8109436q-0.96920776 -0.48893738 -2.270813 -0.22485352q-1.5159912 0.3075714 -2.404602 1.2371826q-0.88861084 0.92962646 -1.0943298 2.2468262q-0.20831299 1.3017883 0.012420654 2.6121979q0.28305054 1.6803894 0.98339844 2.829712q0.7003479 1.1493225 1.8327942 1.5732422q1.1298218 0.4085083 2.3242493 0.16618347q1.4547424 -0.29515076 2.3225708 -1.3480988q0.8678589 -1.052948 0.9396057 -2.7893982zm4.5654297 3.8567505l-2.2201843 -13.181107l1.7456665 -0.35417175l1.1010132 6.536606l5.3917236 -7.8538666l2.3428955 -0.4753418l-4.5809937 6.461746l7.0462036 6.6696625l-2.2816467 0.46290588l-5.794861 -5.727783l-1.7727661 2.5438995l0.76864624 4.563278l-1.745697 0.35417175zm15.612549 -9.895615q-0.39212036 -2.3278809 -0.15631104 -3.842514q0.23321533 -1.5300446 1.0374756 -2.490387q0.81954956 -0.96343994 2.2436829 -1.2523651q1.0565796 -0.21437073 1.9255676 0.055740356q0.86639404 0.2546997 1.5093384 0.9692383q0.65567017 0.69602966 1.1413879 1.7932434q0.4984131 1.0786896 0.82818604 3.0365753q0.39212036 2.327896 0.15890503 3.8579407q-0.23580933 1.5146332 -1.0527649 2.4934845q-0.80426025 0.9603424 -2.2436829 1.2523804q-1.8835144 0.38212585 -3.2018433 -0.7693634q-1.564148 -1.3885956 -2.1899414 -5.1039734zm1.6384888 -0.33241272q0.5479126 3.2528687 1.480011 4.1797943q0.9448242 0.9084015 2.0473633 0.6847229q1.1178589 -0.22679138 1.6864319 -1.4581909q0.5685425 -1.2313843 0.023254395 -4.4688416q-0.5479126 -3.252884 -1.4774475 -4.164398q-0.9295044 -0.911499 -2.0626526 -0.68159485q-1.1025391 0.22367859 -1.6026001 1.2976837q-0.63967896 1.373352 -0.09436035 4.6108246z" fill-rule="nonzero"/><path fill="#000000" fill-opacity="0.0" d="m294.18896 208.92914l33.259857 29.889755" fill-rule="evenodd"/><path stroke="#980000" stroke-width="3.0" stroke-linejoin="round" stroke-linecap="butt" d="m294.18896 208.92914l33.259857 29.889755" fill-rule="evenodd"/><path fill="#000000" fill-opacity="0.0" d="m294.18896 238.87138l33.19687 -31.24408" fill-rule="evenodd"/><path stroke="#980000" stroke-width="3.0" stroke-linejoin="round" stroke-linecap="butt" d="m294.18896 238.87138l33.19687 -31.24408" fill-rule="evenodd"/><path fill="#000000" fill-opacity="0.0" d="m128.8819 156.09448l-0.6614227 150.14172" fill-rule="evenodd"/><path stroke="#434343" stroke-width="3.0" stroke-linejoin="round" stroke-linecap="butt" d="m128.8366 166.37564l-0.5708313 129.5794" fill-rule="evenodd"/><path fill="#434343" stroke="#434343" stroke-width="3.0" stroke-linecap="butt" d="m128.8366 166.37564l3.3588562 3.3885803l-3.3328857 -9.284073l-3.4145432 9.254349z" fill-rule="evenodd"/><path fill="#434343" stroke="#434343" stroke-width="3.0" stroke-linecap="butt" d="m128.26576 295.95505l-3.3588562 -3.3885803l3.3328857 9.284088l3.4145508 -9.254364z" fill-rule="evenodd"/><path fill="#000000" fill-opacity="0.0" d="m0 208.92914l128.22047 0l0 31.244095l-128.22047 0z" fill-rule="evenodd"/><path fill="#434343" d="m19.234268 221.35118l0 -9.546875l4.234375 0q1.265625 0 1.921875 0.265625q0.671875 0.25 1.0625 0.90625q0.40625 0.65625 0.40625 1.4375q0 1.015625 -0.65625 1.71875q-0.65625 0.6875 -2.03125 0.875q0.5 0.25 0.765625 0.484375q0.546875 0.5 1.046875 1.265625l1.65625 2.59375l-1.578125 0l-1.265625 -1.984375q-0.5625 -0.859375 -0.921875 -1.3125q-0.34375 -0.453125 -0.640625 -0.640625q-0.28125 -0.1875 -0.5625 -0.25q-0.21875 -0.046875 -0.703125 -0.046875l-1.46875 0l0 4.234375l-1.265625 0zm1.265625 -5.328125l2.71875 0q0.859375 0 1.34375 -0.171875q0.484375 -0.1875 0.734375 -0.578125q0.265625 -0.390625 0.265625 -0.859375q0 -0.671875 -0.5 -1.109375q-0.484375 -0.4375 -1.546875 -0.4375l-3.015625 0l0 3.15625zm12.922028 3.109375l1.203125 0.140625q-0.28125 1.0625 -1.0625 1.65625q-0.765625 0.578125 -1.96875 0.578125q-1.515625 0 -2.40625 -0.9375q-0.890625 -0.9375 -0.890625 -2.609375q0 -1.75 0.890625 -2.703125q0.90625 -0.96875 2.34375 -0.96875q1.390625 0 2.265625 0.9375q0.875 0.9375 0.875 2.65625q0 0.109375 0 0.3125l-5.15625 0q0.0625 1.140625 0.640625 1.75q0.578125 0.59375 1.4375 0.59375q0.65625 0 1.109375 -0.328125q0.453125 -0.34375 0.71875 -1.078125zm-3.84375 -1.90625l3.859375 0q-0.078125 -0.859375 -0.4375 -1.296875q-0.5625 -0.6875 -1.453125 -0.6875q-0.8125 0 -1.359375 0.546875q-0.546875 0.53125 -0.609375 1.4375zm9.084351 3.078125l0.171875 1.03125q-0.5 0.109375 -0.890625 0.109375q-0.640625 0 -1.0 -0.203125q-0.34375 -0.203125 -0.484375 -0.53125q-0.140625 -0.328125 -0.140625 -1.390625l0 -3.96875l-0.859375 0l0 -0.90625l0.859375 0l0 -1.71875l1.171875 -0.703125l0 2.421875l1.171875 0l0 0.90625l-1.171875 0l0 4.046875q0 0.5 0.046875 0.640625q0.0625 0.140625 0.203125 0.234375q0.140625 0.078125 0.40625 0.078125q0.203125 0 0.515625 -0.046875zm1.1248627 1.046875l0 -6.90625l1.0625 0l0 1.046875q0.40625 -0.734375 0.734375 -0.96875q0.34375 -0.234375 0.765625 -0.234375q0.59375 0 1.203125 0.375l-0.40625 1.078125q-0.4375 -0.25 -0.859375 -0.25q-0.390625 0 -0.703125 0.234375q-0.296875 0.234375 -0.421875 0.640625q-0.203125 0.625 -0.203125 1.359375l0 3.625l-1.171875 0zm8.96962 -0.859375q-0.65625 0.5625 -1.265625 0.796875q-0.59375 0.21875 -1.28125 0.21875q-1.140625 0 -1.75 -0.546875q-0.609375 -0.5625 -0.609375 -1.4375q0 -0.5 0.21875 -0.921875q0.234375 -0.421875 0.609375 -0.671875q0.375 -0.25 0.84375 -0.390625q0.34375 -0.078125 1.046875 -0.171875q1.421875 -0.171875 2.09375 -0.40625q0 -0.234375 0 -0.296875q0 -0.71875 -0.328125 -1.015625q-0.453125 -0.390625 -1.34375 -0.390625q-0.8125 0 -1.21875 0.296875q-0.390625 0.28125 -0.578125 1.015625l-1.140625 -0.15625q0.15625 -0.734375 0.515625 -1.1875q0.359375 -0.453125 1.03125 -0.6875q0.671875 -0.25 1.5625 -0.25q0.890625 0 1.4375 0.203125q0.5625 0.203125 0.8125 0.53125q0.265625 0.3125 0.375 0.796875q0.046875 0.296875 0.046875 1.078125l0 1.5625q0 1.625 0.078125 2.0625q0.078125 0.4375 0.296875 0.828125l-1.21875 0q-0.1875 -0.359375 -0.234375 -0.859375zm-0.09375 -2.609375q-0.640625 0.265625 -1.921875 0.4375q-0.71875 0.109375 -1.015625 0.25q-0.296875 0.125 -0.46875 0.375q-0.15625 0.25 -0.15625 0.546875q0 0.46875 0.34375 0.78125q0.359375 0.3125 1.046875 0.3125q0.671875 0 1.203125 -0.296875q0.53125 -0.296875 0.78125 -0.8125q0.1875 -0.390625 0.1875 -1.171875l0 -0.421875zm2.9906006 3.46875l0 -6.90625l1.0625 0l0 0.984375q0.75 -1.140625 2.1875 -1.140625q0.625 0 1.15625 0.21875q0.53125 0.21875 0.78125 0.59375q0.265625 0.359375 0.375 0.859375q0.0625 0.328125 0.0625 1.140625l0 4.25l-1.171875 0l0 -4.203125q0 -0.71875 -0.140625 -1.0625q-0.140625 -0.359375 -0.484375 -0.5625q-0.34375 -0.21875 -0.8125 -0.21875q-0.75 0 -1.296875 0.46875q-0.546875 0.46875 -0.546875 1.796875l0 3.78125l-1.171875 0zm6.9437256 -2.0625l1.15625 -0.1875q0.109375 0.703125 0.546875 1.078125q0.453125 0.359375 1.25 0.359375q0.8125 0 1.203125 -0.328125q0.390625 -0.328125 0.390625 -0.765625q0 -0.390625 -0.359375 -0.625q-0.234375 -0.15625 -1.1875 -0.390625q-1.296875 -0.328125 -1.796875 -0.5625q-0.484375 -0.25 -0.75 -0.65625q-0.25 -0.421875 -0.25 -0.9375q0 -0.453125 0.203125 -0.84375q0.21875 -0.40625 0.578125 -0.671875q0.28125 -0.1875 0.75 -0.328125q0.46875 -0.140625 1.015625 -0.140625q0.8125 0 1.421875 0.234375q0.609375 0.234375 0.90625 0.640625q0.296875 0.390625 0.40625 1.0625l-1.140625 0.15625q-0.078125 -0.53125 -0.453125 -0.828125q-0.375 -0.3125 -1.0625 -0.3125q-0.8125 0 -1.15625 0.265625q-0.34375 0.265625 -0.34375 0.625q0 0.234375 0.140625 0.421875q0.15625 0.1875 0.453125 0.3125q0.171875 0.0625 1.03125 0.296875q1.25 0.328125 1.734375 0.546875q0.5 0.203125 0.78125 0.609375q0.28125 0.40625 0.28125 1.0q0 0.59375 -0.34375 1.109375q-0.34375 0.515625 -1.0 0.796875q-0.640625 0.28125 -1.453125 0.28125q-1.34375 0 -2.046875 -0.5625q-0.703125 -0.5625 -0.90625 -1.65625zm7.1328125 2.0625l0 -6.90625l1.046875 0l0 0.96875q0.328125 -0.515625 0.859375 -0.8125q0.546875 -0.3125 1.234375 -0.3125q0.78125 0 1.265625 0.3125q0.484375 0.3125 0.6875 0.890625q0.828125 -1.203125 2.140625 -1.203125q1.03125 0 1.578125 0.578125q0.5625 0.5625 0.5625 1.734375l0 4.75l-1.171875 0l0 -4.359375q0 -0.703125 -0.125 -1.0q-0.109375 -0.3125 -0.40625 -0.5q-0.296875 -0.1875 -0.703125 -0.1875q-0.71875 0 -1.203125 0.484375q-0.484375 0.484375 -0.484375 1.546875l0 4.015625l-1.171875 0l0 -4.484375q0 -0.78125 -0.296875 -1.171875q-0.28125 -0.390625 -0.921875 -0.390625q-0.5 0 -0.921875 0.265625q-0.421875 0.25 -0.609375 0.75q-0.1875 0.5 -0.1875 1.453125l0 3.578125l-1.171875 0zm11.118057 -8.1875l0 -1.359375l1.171875 0l0 1.359375l-1.171875 0zm0 8.1875l0 -6.90625l1.171875 0l0 6.90625l-1.171875 0zm2.476715 -2.0625l1.15625 -0.1875q0.109375 0.703125 0.546875 1.078125q0.453125 0.359375 1.25 0.359375q0.8125 0 1.203125 -0.328125q0.390625 -0.328125 0.390625 -0.765625q0 -0.390625 -0.359375 -0.625q-0.234375 -0.15625 -1.1875 -0.390625q-1.296875 -0.328125 -1.796875 -0.5625q-0.484375 -0.25 -0.75 -0.65625q-0.25 -0.421875 -0.25 -0.9375q0 -0.453125 0.203125 -0.84375q0.21875 -0.40625 0.578125 -0.671875q0.28125 -0.1875 0.75 -0.328125q0.46875 -0.140625 1.015625 -0.140625q0.8125 0 1.421875 0.234375q0.609375 0.234375 0.90625 0.640625q0.296875 0.390625 0.40625 1.0625l-1.140625 0.15625q-0.078125 -0.53125 -0.453125 -0.828125q-0.375 -0.3125 -1.0625 -0.3125q-0.8125 0 -1.15625 0.265625q-0.34375 0.265625 -0.34375 0.625q0 0.234375 0.140625 0.421875q0.15625 0.1875 0.453125 0.3125q0.171875 0.0625 1.03125 0.296875q1.25 0.328125 1.734375 0.546875q0.5 0.203125 0.78125 0.609375q0.28125 0.40625 0.28125 1.0q0 0.59375 -0.34375 1.109375q-0.34375 0.515625 -1.0 0.796875q-0.640625 0.28125 -1.453125 0.28125q-1.34375 0 -2.046875 -0.5625q-0.703125 -0.5625 -0.90625 -1.65625zm6.6640625 0l1.15625 -0.1875q0.109375 0.703125 0.546875 1.078125q0.453125 0.359375 1.25 0.359375q0.8125 0 1.203125 -0.328125q0.390625 -0.328125 0.390625 -0.765625q0 -0.390625 -0.359375 -0.625q-0.234375 -0.15625 -1.1875 -0.390625q-1.296875 -0.328125 -1.796875 -0.5625q-0.484375 -0.25 -0.75 -0.65625q-0.25 -0.421875 -0.25 -0.9375q0 -0.453125 0.203125 -0.84375q0.21875 -0.40625 0.578125 -0.671875q0.28125 -0.1875 0.75 -0.328125q0.46875 -0.140625 1.015625 -0.140625q0.8125 0 1.421875 0.234375q0.609375 0.234375 0.90625 0.640625q0.296875 0.390625 0.40625 1.0625l-1.140625 0.15625q-0.078125 -0.53125 -0.453125 -0.828125q-0.375 -0.3125 -1.0625 -0.3125q-0.8125 0 -1.15625 0.265625q-0.34375 0.265625 -0.34375 0.625q0 0.234375 0.140625 0.421875q0.15625 0.1875 0.453125 0.3125q0.171875 0.0625 1.03125 0.296875q1.25 0.328125 1.734375 0.546875q0.5 0.203125 0.78125 0.609375q0.28125 0.40625 0.28125 1.0q0 0.59375 -0.34375 1.109375q-0.34375 0.515625 -1.0 0.796875q-0.640625 0.28125 -1.453125 0.28125q-1.34375 0 -2.046875 -0.5625q-0.703125 -0.5625 -0.90625 -1.65625zm7.1484375 -6.125l0 -1.359375l1.171875 0l0 1.359375l-1.171875 0zm0 8.1875l0 -6.90625l1.171875 0l0 6.90625l-1.171875 0zm2.507965 -3.453125q0 -1.921875 1.078125 -2.84375q0.890625 -0.765625 2.171875 -0.765625q1.421875 0 2.328125 0.9375q0.90625 0.921875 0.90625 2.578125q0 1.328125 -0.40625 2.09375q-0.390625 0.765625 -1.15625 1.1875q-0.765625 0.421875 -1.671875 0.421875q-1.453125 0 -2.359375 -0.921875q-0.890625 -0.9375 -0.890625 -2.6875zm1.203125 0q0 1.328125 0.578125 1.984375q0.59375 0.65625 1.46875 0.65625q0.875 0 1.453125 -0.65625q0.578125 -0.671875 0.578125 -2.03125q0 -1.28125 -0.59375 -1.9375q-0.578125 -0.65625 -1.4375 -0.65625q-0.875 0 -1.46875 0.65625q-0.578125 0.65625 -0.578125 1.984375zm6.6468506 3.453125l0 -6.90625l1.0625 0l0 0.984375q0.75 -1.140625 2.1875 -1.140625q0.625 0 1.15625 0.21875q0.53125 0.21875 0.78125 0.59375q0.265625 0.359375 0.375 0.859375q0.0625 0.328125 0.0625 1.140625l0 4.25l-1.171875 0l0 -4.203125q0 -0.71875 -0.140625 -1.0625q-0.140625 -0.359375 -0.484375 -0.5625q-0.34375 -0.21875 -0.8125 -0.21875q-0.75 0 -1.296875 0.46875q-0.546875 0.46875 -0.546875 1.796875l0 3.78125l-1.171875 0z" fill-rule="nonzero"/><path fill="#434343" d="m50.782898 237.35118l0 -8.421875l-3.140625 0l0 -1.125l7.5625 0l0 1.125l-3.15625 0l0 8.421875l-1.265625 0zm5.0840607 -8.1875l0 -1.359375l1.171875 0l0 1.359375l-1.171875 0zm0 8.1875l0 -6.90625l1.171875 0l0 6.90625l-1.171875 0zm2.945465 0l0 -6.90625l1.046875 0l0 0.96875q0.328125 -0.515625 0.859375 -0.8125q0.546875 -0.3125 1.234375 -0.3125q0.78125 0 1.265625 0.3125q0.484375 0.3125 0.6875 0.890625q0.828125 -1.203125 2.140625 -1.203125q1.03125 0 1.578125 0.578125q0.5625 0.5625 0.5625 1.734375l0 4.75l-1.171875 0l0 -4.359375q0 -0.703125 -0.125 -1.0q-0.109375 -0.3125 -0.40625 -0.5q-0.296875 -0.1875 -0.703125 -0.1875q-0.71875 0 -1.203125 0.484375q-0.484375 0.484375 -0.484375 1.546875l0 4.015625l-1.171875 0l0 -4.484375q0 -0.78125 -0.296875 -1.171875q-0.28125 -0.390625 -0.921875 -0.390625q-0.5 0 -0.921875 0.265625q-0.421875 0.25 -0.609375 0.75q-0.1875 0.5 -0.1875 1.453125l0 3.578125l-1.171875 0zm15.836807 -2.21875l1.203125 0.140625q-0.28125 1.0625 -1.0625 1.65625q-0.765625 0.578125 -1.96875 0.578125q-1.515625 0 -2.40625 -0.9375q-0.890625 -0.9375 -0.890625 -2.609375q0 -1.75 0.890625 -2.703125q0.90625 -0.96875 2.34375 -0.96875q1.390625 0 2.265625 0.9375q0.875 0.9375 0.875 2.65625q0 0.109375 0 0.3125l-5.15625 0q0.0625 1.140625 0.640625 1.75q0.578125 0.59375 1.4375 0.59375q0.65625 0 1.109375 -0.328125q0.453125 -0.34375 0.71875 -1.078125zm-3.84375 -1.90625l3.859375 0q-0.078125 -0.859375 -0.4375 -1.296875q-0.5625 -0.6875 -1.453125 -0.6875q-0.8125 0 -1.359375 0.546875q-0.546875 0.53125 -0.609375 1.4375zm6.5062256 4.125l0 -6.90625l1.0625 0l0 1.046875q0.40625 -0.734375 0.734375 -0.96875q0.34375 -0.234375 0.765625 -0.234375q0.59375 0 1.203125 0.375l-0.40625 1.078125q-0.4375 -0.25 -0.859375 -0.25q-0.390625 0 -0.703125 0.234375q-0.296875 0.234375 -0.421875 0.640625q-0.203125 0.625 -0.203125 1.359375l0 3.625l-1.171875 0z" fill-rule="nonzero"/><path fill="#000000" fill-opacity="0.0" d="m144.57547 456.27216l419.3386 0" fill-rule="evenodd"/><path stroke="#ffffff" stroke-width="3.0" stroke-linejoin="round" stroke-linecap="butt" d="m144.57547 456.27216l409.05734 0" fill-rule="evenodd"/><path fill="#ffffff" stroke="#ffffff" stroke-width="3.0" stroke-linecap="butt" d="m553.6328 456.27216l-3.3737793 3.3737488l9.269287 -3.3737488l-9.269287 -3.3737488z" fill-rule="evenodd"/><path fill="#000000" fill-opacity="0.0" d="m270.81342 418.90668l154.3937 0l0 37.35434l-154.3937 0z" fill-rule="evenodd"/><path fill="#ffffff" d="m321.96442 444.50385l0 -13.359375l4.609375 0q1.546875 0 2.375 0.203125q1.140625 0.25 1.953125 0.953125q1.0625 0.890625 1.578125 2.28125q0.53125 1.390625 0.53125 3.171875q0 1.515625 -0.359375 2.703125q-0.359375 1.171875 -0.921875 1.9375q-0.546875 0.765625 -1.203125 1.21875q-0.65625 0.4375 -1.59375 0.671875q-0.9375 0.21875 -2.140625 0.21875l-4.828125 0zm1.765625 -1.578125l2.859375 0q1.3125 0 2.0625 -0.234375q0.75 -0.25 1.203125 -0.703125q0.625 -0.625 0.96875 -1.6875q0.359375 -1.0625 0.359375 -2.578125q0 -2.09375 -0.6875 -3.21875q-0.6875 -1.125 -1.671875 -1.5q-0.703125 -0.28125 -2.28125 -0.28125l-2.8125 0l0 10.203125zm17.816711 0.390625q-0.921875 0.765625 -1.765625 1.09375q-0.828125 0.3125 -1.796875 0.3125q-1.59375 0 -2.453125 -0.78125q-0.859375 -0.78125 -0.859375 -1.984375q0 -0.71875 0.328125 -1.296875q0.328125 -0.59375 0.84375 -0.9375q0.53125 -0.359375 1.1875 -0.546875q0.46875 -0.125 1.453125 -0.25q1.984375 -0.234375 2.921875 -0.5625q0.015625 -0.34375 0.015625 -0.421875q0 -1.0 -0.46875 -1.421875q-0.625 -0.546875 -1.875 -0.546875q-1.15625 0 -1.703125 0.40625q-0.546875 0.40625 -0.8125 1.421875l-1.609375 -0.21875q0.21875 -1.015625 0.71875 -1.640625q0.5 -0.640625 1.453125 -0.984375q0.953125 -0.34375 2.1875 -0.34375q1.25 0 2.015625 0.296875q0.78125 0.28125 1.140625 0.734375q0.375 0.4375 0.515625 1.109375q0.078125 0.421875 0.078125 1.515625l0 2.1875q0 2.28125 0.109375 2.890625q0.109375 0.59375 0.40625 1.15625l-1.703125 0q-0.265625 -0.515625 -0.328125 -1.1875zm-0.140625 -3.671875q-0.890625 0.375 -2.671875 0.625q-1.015625 0.140625 -1.4375 0.328125q-0.421875 0.1875 -0.65625 0.53125q-0.21875 0.34375 -0.21875 0.78125q0 0.65625 0.5 1.09375q0.5 0.4375 1.453125 0.4375q0.9375 0 1.671875 -0.40625q0.75 -0.421875 1.09375 -1.140625q0.265625 -0.5625 0.265625 -1.640625l0 -0.609375zm7.781952 3.390625l0.234375 1.453125q-0.6875 0.140625 -1.234375 0.140625q-0.890625 0 -1.390625 -0.28125q-0.484375 -0.28125 -0.6875 -0.734375q-0.203125 -0.46875 -0.203125 -1.9375l0 -5.578125l-1.203125 0l0 -1.265625l1.203125 0l0 -2.390625l1.625 -0.984375l0 3.375l1.65625 0l0 1.265625l-1.65625 0l0 5.671875q0 0.6875 0.078125 0.890625q0.09375 0.203125 0.28125 0.328125q0.203125 0.109375 0.578125 0.109375q0.265625 0 0.71875 -0.0625zm7.917694 0.28125q-0.921875 0.765625 -1.765625 1.09375q-0.828125 0.3125 -1.796875 0.3125q-1.59375 0 -2.453125 -0.78125q-0.859375 -0.78125 -0.859375 -1.984375q0 -0.71875 0.328125 -1.296875q0.328125 -0.59375 0.84375 -0.9375q0.53125 -0.359375 1.1875 -0.546875q0.46875 -0.125 1.453125 -0.25q1.984375 -0.234375 2.921875 -0.5625q0.015625 -0.34375 0.015625 -0.421875q0 -1.0 -0.46875 -1.421875q-0.625 -0.546875 -1.875 -0.546875q-1.15625 0 -1.703125 0.40625q-0.546875 0.40625 -0.8125 1.421875l-1.609375 -0.21875q0.21875 -1.015625 0.71875 -1.640625q0.5 -0.640625 1.453125 -0.984375q0.953125 -0.34375 2.1875 -0.34375q1.25 0 2.015625 0.296875q0.78125 0.28125 1.140625 0.734375q0.375 0.4375 0.515625 1.109375q0.078125 0.421875 0.078125 1.515625l0 2.1875q0 2.28125 0.109375 2.890625q0.109375 0.59375 0.40625 1.15625l-1.703125 0q-0.265625 -0.515625 -0.328125 -1.1875zm-0.140625 -3.671875q-0.890625 0.375 -2.671875 0.625q-1.015625 0.140625 -1.4375 0.328125q-0.421875 0.1875 -0.65625 0.53125q-0.21875 0.34375 -0.21875 0.78125q0 0.65625 0.5 1.09375q0.5 0.4375 1.453125 0.4375q0.9375 0 1.671875 -0.40625q0.75 -0.421875 1.09375 -1.140625q0.265625 -0.5625 0.265625 -1.640625l0 -0.609375zm15.105896 4.859375l-1.640625 0l0 -10.453125q-0.59375 0.5625 -1.5625 1.140625q-0.953125 0.5625 -1.71875 0.84375l0 -1.59375q1.375 -0.640625 2.40625 -1.5625q1.03125 -0.921875 1.453125 -1.78125l1.0625 0l0 13.40625z" fill-rule="nonzero"/></g></svg>